STARTFONT 2.1
FONT -FontForge-Deutsch Gothic-Book-R-Normal--14-100-100-100-P-65-ISO10646-1
SIZE 10 100 100
FONTBOUNDINGBOX 16 15 0 -3
COMMENT "Generated by fontforge, http://fontforge.sourceforge.net"
COMMENT "Deutsch Gothic Font Created by J. Fordyce, (c) 1994 Generated by Fontographer 3.5"
STARTPROPERTIES 39
FOUNDRY "FontForge"
FAMILY_NAME "Deutsch Gothic"
WEIGHT_NAME "Book"
SLANT "R"
SETWIDTH_NAME "Normal"
ADD_STYLE_NAME ""
PIXEL_SIZE 14
POINT_SIZE 100
RESOLUTION_X 100
RESOLUTION_Y 100
SPACING "P"
AVERAGE_WIDTH 65
CHARSET_REGISTRY "ISO10646"
CHARSET_ENCODING "1"
FONTNAME_REGISTRY ""
CHARSET_COLLECTIONS "ISO10646-1"
FONT_NAME "Deutsch-Gothic"
FACE_NAME "Deutsch Gothic"
COPYRIGHT "Deutsch Gothic Font Created by J. Fordyce, (c) 1994 Generated by Fontographer 3.5"
FONT_VERSION "1.0 Tue Jan 04 17:15:27 1994"
FONT_ASCENT 11
FONT_DESCENT 3
UNDERLINE_POSITION -2
UNDERLINE_THICKNESS 1
X_HEIGHT 7
CAP_HEIGHT 10
RAW_ASCENT 800
RAW_DESCENT 200
NORM_SPACE 7
RELATIVE_WEIGHT 40
RELATIVE_SETWIDTH 50
SUPERSCRIPT_X 0
SUPERSCRIPT_Y 6
SUPERSCRIPT_SIZE 9
SUBSCRIPT_X 0
SUBSCRIPT_Y 1
SUBSCRIPT_SIZE 9
AVG_LOWERCASE_WIDTH 52
AVG_UPPERCASE_WIDTH 92
ENDPROPERTIES
CHARS 105
STARTCHAR space
ENCODING 32
SWIDTH 531 0
DWIDTH 7 0
BBX 1 1 0 0
BITMAP
00
ENDCHAR
STARTCHAR exclam
ENCODING 33
SWIDTH 251 0
DWIDTH 4 0
BBX 3 11 0 0
BITMAP
20
40
C0
E0
E0
60
60
40
80
20
60
ENDCHAR
STARTCHAR quotedbl
ENCODING 34
SWIDTH 289 0
DWIDTH 4 0
BBX 3 4 0 7
BITMAP
E0
E0
E0
E0
ENDCHAR
STARTCHAR numbersign
ENCODING 35
SWIDTH 561 0
DWIDTH 8 0
BBX 6 8 1 1
BITMAP
20
28
FC
FC
FC
90
90
10
ENDCHAR
STARTCHAR dollar
ENCODING 36
SWIDTH 374 0
DWIDTH 5 0
BBX 5 9 0 1
BITMAP
20
20
58
F0
F8
78
90
E0
20
ENDCHAR
STARTCHAR percent
ENCODING 37
SWIDTH 604 0
DWIDTH 8 0
BBX 8 11 0 0
BITMAP
62
D4
D4
D8
78
10
16
3B
3B
5F
46
ENDCHAR
STARTCHAR ampersand
ENCODING 38
SWIDTH 510 0
DWIDTH 7 0
BBX 7 12 0 -1
BITMAP
18
38
68
70
62
76
FC
DE
FE
6E
04
04
ENDCHAR
STARTCHAR quotesingle
ENCODING 39
SWIDTH 144 0
DWIDTH 2 0
BBX 2 4 0 7
BITMAP
C0
C0
C0
C0
ENDCHAR
STARTCHAR parenleft
ENCODING 40
SWIDTH 323 0
DWIDTH 5 0
BBX 4 12 0 -1
BITMAP
10
20
60
40
C0
C0
C0
C0
C0
60
60
20
ENDCHAR
STARTCHAR parenright
ENCODING 41
SWIDTH 306 0
DWIDTH 4 0
BBX 4 12 0 -1
BITMAP
40
60
60
30
30
30
30
30
20
60
40
80
ENDCHAR
STARTCHAR asterisk
ENCODING 42
SWIDTH 378 0
DWIDTH 5 0
BBX 6 4 0 7
BITMAP
30
FC
B4
78
ENDCHAR
STARTCHAR plus
ENCODING 43
SWIDTH 391 0
DWIDTH 5 0
BBX 5 5 0 3
BITMAP
60
F8
F8
60
60
ENDCHAR
STARTCHAR comma
ENCODING 44
SWIDTH 178 0
DWIDTH 3 0
BBX 2 3 0 -1
BITMAP
40
C0
80
ENDCHAR
STARTCHAR hyphen
ENCODING 45
SWIDTH 255 0
DWIDTH 4 0
BBX 3 2 0 4
BITMAP
E0
E0
ENDCHAR
STARTCHAR period
ENCODING 46
SWIDTH 195 0
DWIDTH 3 0
BBX 2 2 0 0
BITMAP
40
C0
ENDCHAR
STARTCHAR slash
ENCODING 47
SWIDTH 540 0
DWIDTH 8 0
BBX 6 12 1 0
BITMAP
04
04
08
08
10
10
20
20
40
40
80
80
ENDCHAR
STARTCHAR zero
ENCODING 48
SWIDTH 706 0
DWIDTH 10 0
BBX 10 11 0 0
BITMAP
0E00
3F00
6780
4380
C1C0
C1C0
C1C0
E180
E180
7100
3E00
ENDCHAR
STARTCHAR one
ENCODING 49
SWIDTH 361 0
DWIDTH 5 0
BBX 5 11 0 0
BITMAP
60
E0
60
60
60
60
60
60
60
68
70
ENDCHAR
STARTCHAR two
ENCODING 50
SWIDTH 574 0
DWIDTH 8 0
BBX 8 11 0 0
BITMAP
1C
3E
4E
06
04
04
08
10
21
7E
FC
ENDCHAR
STARTCHAR three
ENCODING 51
SWIDTH 557 0
DWIDTH 8 0
BBX 7 11 0 0
BITMAP
3E
7C
88
1C
1E
0E
06
46
CC
F8
70
ENDCHAR
STARTCHAR four
ENCODING 52
SWIDTH 651 0
DWIDTH 9 0
BBX 8 11 0 0
BITMAP
04
0C
0C
1C
3C
6D
7F
FC
0C
0E
0C
ENDCHAR
STARTCHAR five
ENCODING 53
SWIDTH 617 0
DWIDTH 9 0
BBX 8 11 0 0
BITMAP
1F
3E
30
38
3C
0E
06
46
C4
F8
F0
ENDCHAR
STARTCHAR six
ENCODING 54
SWIDTH 548 0
DWIDTH 8 0
BBX 7 11 0 0
BITMAP
08
10
20
60
7C
FE
CE
C6
E6
FC
78
ENDCHAR
STARTCHAR seven
ENCODING 55
SWIDTH 536 0
DWIDTH 8 0
BBX 6 10 1 1
BITMAP
7C
FC
18
18
30
30
60
40
C0
80
ENDCHAR
STARTCHAR eight
ENCODING 56
SWIDTH 519 0
DWIDTH 7 0
BBX 7 11 0 0
BITMAP
18
3C
2C
6C
78
7C
5E
C6
E4
F8
70
ENDCHAR
STARTCHAR nine
ENCODING 57
SWIDTH 536 0
DWIDTH 8 0
BBX 7 11 0 0
BITMAP
18
3C
4E
C6
C6
E6
7C
2C
08
10
20
ENDCHAR
STARTCHAR colon
ENCODING 58
SWIDTH 204 0
DWIDTH 3 0
BBX 3 7 0 1
BITMAP
60
40
00
00
00
40
C0
ENDCHAR
STARTCHAR semicolon
ENCODING 59
SWIDTH 182 0
DWIDTH 3 0
BBX 2 7 0 -1
BITMAP
40
C0
00
40
C0
80
80
ENDCHAR
STARTCHAR less
ENCODING 60
SWIDTH 500 0
DWIDTH 7 0
BBX 7 7 0 1
BITMAP
06
1E
F8
F0
7C
1E
06
ENDCHAR
STARTCHAR equal
ENCODING 61
SWIDTH 336 0
DWIDTH 5 0
BBX 4 5 0 3
BITMAP
F0
F0
00
F0
F0
ENDCHAR
STARTCHAR greater
ENCODING 62
SWIDTH 500 0
DWIDTH 7 0
BBX 7 7 0 1
BITMAP
C0
F0
3E
1E
7C
F0
C0
ENDCHAR
STARTCHAR question
ENCODING 63
SWIDTH 387 0
DWIDTH 5 0
BBX 6 11 0 0
BITMAP
38
7C
9C
18
18
10
30
30
00
10
30
ENDCHAR
STARTCHAR at
ENCODING 64
SWIDTH 684 0
DWIDTH 10 0
BBX 9 10 0 0
BITMAP
1E00
6100
4A80
BC80
9C80
BC80
9D00
5E80
6100
1E00
ENDCHAR
STARTCHAR A
ENCODING 65
SWIDTH 727 0
DWIDTH 10 0
BBX 10 11 0 0
BITMAP
7FC0
0BC0
1BC0
33C0
33C0
3FC0
33C0
13C0
13C0
23C0
C3C0
ENDCHAR
STARTCHAR B
ENCODING 66
SWIDTH 672 0
DWIDTH 9 0
BBX 9 11 0 0
BITMAP
FE00
7980
7980
7900
7B00
7F80
7980
7980
7980
7980
0F00
ENDCHAR
STARTCHAR C
ENCODING 67
SWIDTH 651 0
DWIDTH 9 0
BBX 9 11 0 0
BITMAP
1E80
3300
6200
E400
E800
E800
F000
E000
6300
7300
9E00
ENDCHAR
STARTCHAR D
ENCODING 68
SWIDTH 710 0
DWIDTH 10 0
BBX 10 11 0 0
BITMAP
FE00
7700
7380
73C0
73C0
73C0
73C0
7380
7380
7700
8E00
ENDCHAR
STARTCHAR E
ENCODING 69
SWIDTH 634 0
DWIDTH 9 0
BBX 8 11 0 0
BITMAP
1F
31
71
E1
FD
E5
E1
E1
71
31
1F
ENDCHAR
STARTCHAR F
ENCODING 70
SWIDTH 642 0
DWIDTH 9 0
BBX 8 11 0 0
BITMAP
7F
1C
38
3F
FC
1C
1C
0C
0C
C8
70
ENDCHAR
STARTCHAR G
ENCODING 71
SWIDTH 668 0
DWIDTH 9 0
BBX 9 11 0 0
BITMAP
0700
3F00
7900
F800
F800
F980
F980
F980
7980
3D80
1E00
ENDCHAR
STARTCHAR H
ENCODING 72
SWIDTH 663 0
DWIDTH 9 0
BBX 9 12 0 -1
BITMAP
FF00
E000
E000
E600
FF00
C780
C380
C180
C180
C100
8200
0C00
ENDCHAR
STARTCHAR I
ENCODING 73
SWIDTH 372 0
DWIDTH 5 0
BBX 5 11 0 0
BITMAP
F8
70
70
70
70
70
70
70
70
70
70
ENDCHAR
STARTCHAR J
ENCODING 74
SWIDTH 526 0
DWIDTH 7 0
BBX 7 12 0 -1
BITMAP
7E
FC
06
06
06
06
06
06
06
06
C6
F8
ENDCHAR
STARTCHAR K
ENCODING 75
SWIDTH 634 0
DWIDTH 9 0
BBX 8 11 0 0
BITMAP
F2
F6
F2
F2
F4
F4
FC
FE
F7
F7
F2
ENDCHAR
STARTCHAR L
ENCODING 76
SWIDTH 622 0
DWIDTH 9 0
BBX 8 11 0 0
BITMAP
C0
C0
C0
C6
C4
C4
C4
C2
C2
C6
FF
ENDCHAR
STARTCHAR M
ENCODING 77
SWIDTH 825 0
DWIDTH 12 0
BBX 10 11 0 0
BITMAP
C800
DD80
FFC0
CDC0
CCC0
CCC0
CCC0
CC80
CC80
CD00
CDC0
ENDCHAR
STARTCHAR N
ENCODING 78
SWIDTH 668 0
DWIDTH 9 0
BBX 9 11 0 0
BITMAP
2600
EF00
FF80
E780
E380
E180
E180
E100
E200
E400
E700
ENDCHAR
STARTCHAR O
ENCODING 79
SWIDTH 672 0
DWIDTH 9 0
BBX 9 11 0 0
BITMAP
0C00
1E00
2F00
6700
E380
E180
E180
F180
7100
3A00
1C00
ENDCHAR
STARTCHAR P
ENCODING 80
SWIDTH 693 0
DWIDTH 10 0
BBX 9 11 0 0
BITMAP
FE00
E380
E380
E380
F380
FF00
E000
E000
E000
E000
E000
ENDCHAR
STARTCHAR Q
ENCODING 81
SWIDTH 702 0
DWIDTH 10 0
BBX 10 13 0 -2
BITMAP
0C00
1F00
2F80
4380
C1C0
C1C0
E0C0
F0C0
7880
7D00
1E00
0E00
0300
ENDCHAR
STARTCHAR R
ENCODING 82
SWIDTH 740 0
DWIDTH 10 0
BBX 10 11 0 0
BITMAP
FE00
F380
F180
F180
F180
F300
FE00
F700
F300
F300
F1C0
ENDCHAR
STARTCHAR S
ENCODING 83
SWIDTH 646 0
DWIDTH 9 0
BBX 8 10 1 1
BITMAP
18
7C
EE
F8
7E
3F
0F
63
FA
3C
ENDCHAR
STARTCHAR T
ENCODING 84
SWIDTH 651 0
DWIDTH 9 0
BBX 8 13 1 -2
BITMAP
7C
9F
66
40
C4
C4
C4
E4
F5
7E
3C
04
06
ENDCHAR
STARTCHAR U
ENCODING 85
SWIDTH 659 0
DWIDTH 9 0
BBX 9 10 0 1
BITMAP
F780
2780
4780
4780
C780
C780
C780
E780
7780
7B00
ENDCHAR
STARTCHAR V
ENCODING 86
SWIDTH 642 0
DWIDTH 9 0
BBX 9 11 0 0
BITMAP
F180
7180
7980
7900
3D00
3E00
1E00
1C00
1C00
0800
0800
ENDCHAR
STARTCHAR W
ENCODING 87
SWIDTH 895 0
DWIDTH 13 0
BBX 12 11 0 0
BITMAP
FFB0
2330
4630
CE30
CE30
CE30
EF30
F720
7FC0
3980
1000
ENDCHAR
STARTCHAR X
ENCODING 88
SWIDTH 727 0
DWIDTH 10 0
BBX 10 11 0 0
BITMAP
30C0
3980
1E00
1C00
1C00
3F80
0F00
1700
6380
E380
03C0
ENDCHAR
STARTCHAR Y
ENCODING 89
SWIDTH 736 0
DWIDTH 10 0
BBX 10 11 0 0
BITMAP
7040
90C0
30C0
30C0
3880
3D80
1F00
0E00
0400
0F00
1F00
ENDCHAR
STARTCHAR Z
ENCODING 90
SWIDTH 604 0
DWIDTH 8 0
BBX 8 11 0 0
BITMAP
22
67
1F
06
0E
1C
1C
38
70
F1
FF
ENDCHAR
STARTCHAR bracketleft
ENCODING 91
SWIDTH 242 0
DWIDTH 3 0
BBX 2 11 0 0
BITMAP
C0
C0
C0
C0
C0
C0
C0
C0
C0
C0
C0
ENDCHAR
STARTCHAR backslash
ENCODING 92
SWIDTH 0 0
DWIDTH 0 0
BBX 7 12 0 0
BITMAP
C0
40
60
20
30
30
18
18
0C
0C
06
06
ENDCHAR
STARTCHAR bracketright
ENCODING 93
SWIDTH 238 0
DWIDTH 3 0
BBX 2 11 0 0
BITMAP
C0
C0
C0
C0
C0
C0
C0
C0
C0
C0
C0
ENDCHAR
STARTCHAR asciicircum
ENCODING 94
SWIDTH 331 0
DWIDTH 5 0
BBX 4 3 0 8
BITMAP
20
70
D0
ENDCHAR
STARTCHAR underscore
ENCODING 95
SWIDTH 510 0
DWIDTH 7 0
BBX 7 1 0 -2
BITMAP
FE
ENDCHAR
STARTCHAR grave
ENCODING 96
SWIDTH 280 0
DWIDTH 4 0
BBX 2 3 1 8
BITMAP
80
C0
C0
ENDCHAR
STARTCHAR a
ENCODING 97
SWIDTH 378 0
DWIDTH 5 0
BBX 5 8 0 0
BITMAP
30
D8
38
58
D8
D8
F8
50
ENDCHAR
STARTCHAR b
ENCODING 98
SWIDTH 412 0
DWIDTH 6 0
BBX 5 10 0 0
BITMAP
C0
C0
F0
F8
D8
D8
D8
D0
D0
60
ENDCHAR
STARTCHAR c
ENCODING 99
SWIDTH 340 0
DWIDTH 5 0
BBX 4 7 0 1
BITMAP
20
70
C0
C0
E0
60
70
ENDCHAR
STARTCHAR d
ENCODING 100
SWIDTH 425 0
DWIDTH 6 0
BBX 5 11 0 0
BITMAP
18
18
18
38
F8
98
98
98
D8
F8
68
ENDCHAR
STARTCHAR e
ENCODING 101
SWIDTH 348 0
DWIDTH 5 0
BBX 4 7 0 1
BITMAP
20
F0
B0
A0
C0
60
70
ENDCHAR
STARTCHAR f
ENCODING 102
SWIDTH 293 0
DWIDTH 4 0
BBX 4 11 0 0
BITMAP
30
E0
70
E0
60
60
60
60
60
60
60
ENDCHAR
STARTCHAR g
ENCODING 103
SWIDTH 442 0
DWIDTH 6 0
BBX 6 10 0 -2
BITMAP
30
58
58
D8
D8
F8
78
5C
0C
78
ENDCHAR
STARTCHAR h
ENCODING 104
SWIDTH 412 0
DWIDTH 6 0
BBX 5 12 0 -1
BITMAP
C0
C0
C0
D0
F8
F8
D8
D8
D8
D0
D0
20
ENDCHAR
STARTCHAR i
ENCODING 105
SWIDTH 228 0
DWIDTH 3 0
BBX 3 10 0 0
BITMAP
80
C0
40
60
60
60
60
60
60
60
ENDCHAR
STARTCHAR j
ENCODING 106
SWIDTH 218 0
DWIDTH 3 0
BBX 3 12 0 -2
BITMAP
80
C0
40
60
60
60
60
60
60
60
60
40
ENDCHAR
STARTCHAR k
ENCODING 107
SWIDTH 409 0
DWIDTH 6 0
BBX 5 11 0 0
BITMAP
40
C0
C0
D8
F8
D8
D0
F0
D8
D8
D8
ENDCHAR
STARTCHAR l
ENCODING 108
SWIDTH 191 0
DWIDTH 3 0
BBX 2 11 0 0
BITMAP
40
C0
C0
C0
C0
C0
C0
C0
C0
C0
C0
ENDCHAR
STARTCHAR m
ENCODING 109
SWIDTH 587 0
DWIDTH 8 0
BBX 8 8 0 0
BITMAP
5B
FF
DB
DB
DB
DB
DB
DB
ENDCHAR
STARTCHAR n
ENCODING 110
SWIDTH 429 0
DWIDTH 6 0
BBX 5 8 0 0
BITMAP
58
F8
D8
D8
D8
D8
D8
D8
ENDCHAR
STARTCHAR o
ENCODING 111
SWIDTH 400 0
DWIDTH 6 0
BBX 5 8 0 0
BITMAP
20
70
D8
D8
D8
F8
70
20
ENDCHAR
STARTCHAR p
ENCODING 112
SWIDTH 451 0
DWIDTH 6 0
BBX 6 10 0 -2
BITMAP
D8
F8
DC
CC
CC
CC
C8
F0
C0
80
ENDCHAR
STARTCHAR q
ENCODING 113
SWIDTH 400 0
DWIDTH 6 0
BBX 5 10 0 -2
BITMAP
10
78
D8
D8
D8
D8
F8
78
18
18
ENDCHAR
STARTCHAR r
ENCODING 114
SWIDTH 331 0
DWIDTH 5 0
BBX 3 8 0 0
BITMAP
A0
E0
E0
C0
C0
C0
C0
C0
ENDCHAR
STARTCHAR s
ENCODING 115
SWIDTH 357 0
DWIDTH 5 0
BBX 5 8 0 0
BITMAP
70
D0
E0
F0
78
38
70
20
ENDCHAR
STARTCHAR t
ENCODING 116
SWIDTH 255 0
DWIDTH 4 0
BBX 3 10 0 0
BITMAP
20
60
E0
60
60
60
60
60
60
60
ENDCHAR
STARTCHAR u
ENCODING 117
SWIDTH 417 0
DWIDTH 6 0
BBX 5 8 0 0
BITMAP
D8
D8
D8
D8
D8
D8
F8
D8
ENDCHAR
STARTCHAR v
ENCODING 118
SWIDTH 379 0
DWIDTH 5 0
BBX 5 8 0 0
BITMAP
50
D8
D8
D8
F8
70
70
20
ENDCHAR
STARTCHAR w
ENCODING 119
SWIDTH 531 0
DWIDTH 7 0
BBX 7 7 0 1
BITMAP
7C
DE
DE
DE
EE
7C
64
ENDCHAR
STARTCHAR x
ENCODING 120
SWIDTH 395 0
DWIDTH 6 0
BBX 5 8 0 0
BITMAP
48
78
70
30
30
70
F8
50
ENDCHAR
STARTCHAR y
ENCODING 121
SWIDTH 395 0
DWIDTH 6 0
BBX 5 11 0 -3
BITMAP
D8
D8
D8
D8
D8
D0
70
20
40
C0
C0
ENDCHAR
STARTCHAR z
ENCODING 122
SWIDTH 442 0
DWIDTH 6 0
BBX 6 8 0 0
BITMAP
78
4C
18
30
30
60
C8
F8
ENDCHAR
STARTCHAR braceleft
ENCODING 123
SWIDTH 293 0
DWIDTH 4 0
BBX 4 12 0 -1
BITMAP
70
60
60
60
60
E0
E0
60
60
60
60
70
ENDCHAR
STARTCHAR bar
ENCODING 124
SWIDTH 276 0
DWIDTH 4 0
BBX 2 11 1 0
BITMAP
C0
C0
C0
C0
C0
C0
C0
C0
C0
C0
C0
ENDCHAR
STARTCHAR braceright
ENCODING 125
SWIDTH 293 0
DWIDTH 4 0
BBX 4 12 0 -1
BITMAP
E0
60
60
60
60
70
70
60
60
60
60
E0
ENDCHAR
STARTCHAR asciitilde
ENCODING 126
SWIDTH 536 0
DWIDTH 8 0
BBX 7 3 0 8
BITMAP
62
52
8C
ENDCHAR
STARTCHAR c128
ENCODING 128
SWIDTH 412 0
DWIDTH 6 0
BBX 5 9 0 1
BITMAP
20
38
58
C0
C0
E0
78
20
20
ENDCHAR
STARTCHAR c129
ENCODING 129
SWIDTH 1221 0
DWIDTH 17 0
BBX 16 11 0 0
BITMAP
FFFF
B0F1
B3CD
B7C5
BBC5
BFC5
B1C9
B1F1
B001
8001
FFFF
ENDCHAR
STARTCHAR florin
ENCODING 402
SWIDTH 161 0
DWIDTH 2 0
BBX 2 4 0 7
BITMAP
40
C0
80
80
ENDCHAR
STARTCHAR quotesinglbase
ENCODING 8218
SWIDTH 165 0
DWIDTH 2 0
BBX 2 4 0 7
BITMAP
40
80
C0
C0
ENDCHAR
STARTCHAR quotedblbase
ENCODING 8222
SWIDTH 293 0
DWIDTH 4 0
BBX 4 4 0 7
BITMAP
50
A0
70
F0
ENDCHAR
STARTCHAR dagger
ENCODING 8224
SWIDTH 863 0
DWIDTH 12 0
BBX 11 11 0 0
BITMAP
FFE0
8C20
8C20
8C20
8C20
8E20
8C20
8C20
8C20
BC20
FFE0
ENDCHAR
STARTCHAR ellipsis
ENCODING 8230
SWIDTH 289 0
DWIDTH 4 0
BBX 4 4 0 7
BITMAP
40
F0
A0
20
ENDCHAR
STARTCHAR .notdef
ENCODING -1
SWIDTH 787 0
DWIDTH 11 0
BBX 10 11 0 0
BITMAP
FFC0
8040
8040
8040
8040
8040
8040
8040
8040
8040
FFC0
ENDCHAR
STARTCHAR .null
ENCODING -1
SWIDTH 0 0
DWIDTH 0 0
BBX 1 1 0 0
BITMAP
00
ENDCHAR
STARTCHAR nonmarkingreturn
ENCODING -1
SWIDTH 531 0
DWIDTH 7 0
BBX 1 1 0 0
BITMAP
00
ENDCHAR
ENDFONT
